<svg viewBox="0 0 500 500" xmlns="http://www.w3.org/2000/svg"><g fill="none" stroke-width="2"><path d="M464.06 127.79q.09 2.26 1.35 4.39 1.42 2.4 1.46 2.5 25.28 50.25 26.28 106.5.01.56-.38.16L367.99 116.66" stroke="#e25209"/><path d="M367.99 116.66q-2.71-4.77-3.79-5.86-6.94-6.97-14.12-14.14-5.46-5.46-13.64-3.5c-3.14.75-5.48 3.08-7.69 5.28q-27.83 27.71-55.46 55.48a1.58 1.53 21.9 0 1-1.1.45h-94.72" stroke="#7d2e06"/><path d="m177.47 154.37-43.6-43.64" stroke="#e25209"/><path d="m133.87 110.73-.45-4.59q-.04-.5-.54-.54c-17.42-1.47-31.68 8.05-37.67 24.3q-1.62 4.42-1.63 10.35-.01 14.11-.21 28.2" stroke="#7d2e06"/><path d="m93.37 168.45-.24 97.06q0 .25-.12.47-.08.17-.08.37-.12 28.65-.01 65.17.03 9.61 5.61 17.79.28.42.42.9.15.57.55 1.02 4.59 5.25 8.74 9.41 64.71 64.94 128.02 128.1.49.48 1.19.62.61.12 0 .24-.22.04-.44.03c-68.27-2.7-131.21-32.9-176.63-84.17q-1.04-1.17-1.88-2.43-.38-.57-1.06-.75-.5-.14-.67-.62-.52-1.48-2.07-1.65" stroke="#e25209"/><path d="M367.99 116.66q.35 6.32-2.14 10.66-1.21 2.11-6.95 7.7-9.5 9.23-19.04 18.96-.44.44.19.44h33.68a4.56 4.55-90 0 1 4.55 4.56v90.3q0 .72.51.22l20.12-19.82q.52-.52.5.22c-.14 5.04.25 10.28.26 15.44q.14 69.78-.18 146.06-.01 2.5-.11 5.24-.02.5-.52.51-2.1.04-4.05.05-60.74.45-148.31.18-7.16-.02-14.41-.35-.58-.02-.17-.44l32.17-32.33q.55-.55-.23-.55-68.85.02-134.18.06-5.87 0-9.71-.9c-11.74-2.75-21.5-11.92-24.85-23.24q-1.53-5.19-1.53-17.91.01-76.63-.22-153.27" stroke="#652403"/><path d="M133.87 110.73v43.14q0 .51.5.51l43.1-.01" stroke="#652403"/><path d="m328.34 112.02 20.12 20.12a.35.35 0 0 0 .5 0l8.36-8.36a5.11 5.1 45 0 0 0-7.22l-13.4-13.4a5.11 5.1 45 0 0-7.22 0l-8.36 8.36a.35.35 0 0 0 0 .5" stroke="#2a383d"/><path d="M104.77 131.25c-.97 2.43-1.85 5.34-1.85 8.03q.02 83.29 0 167.38 0 .79.55.22 8.3-8.59 20.17-10.53.69-.12.69-.82l-.08-179.98q0-.49-.47-.37-13.94 3.47-19.01 16.07" stroke="#494949"/><path d="M342.082 139.013a.4.4 0 0 0 0-.566l-20.04-20.04a.4.4 0 0 0-.565 0l-7.68 7.68a.4.4 0 0 0 0 .566l20.04 20.04a.4.4 0 0 0 .566 0z" stroke="#7d2e06"/><path d="m229.13 240.43 5.49 5.48a.41.41 0 0 0 .58 0l92.12-92.12q.38-.38.01-.76l-5.37-5.44" stroke="#805202"/><path d="m321.96 147.59-14.5-14.41q-.38-.38-.75 0l-92.02 92.02q-.37.37 0 .74l14.44 14.49" stroke="#806508"/><path d="m321.96 147.59-92.83 92.84" stroke="#ffb70a"/><path d="M358.91 269.49q5-4.57 9.04-8.54 1.37-1.35 1.37-3.32-.02-47.33-.01-93.61 0-.52-.52-.52l-9.93-.05" stroke="#636365"/><path d="m358.86 163.45-27.76.01a1.85 1.8-67 0 0-1.29.54l-91.57 91.55a5.63 5.62-77.3 0 1-2.13 1.35l-26.05 9.17q-1.17.41.06.41 43.87 0 87.98.01 4.06 0 4.33 4.39v.18q-.1 4.36-4.72 4.36-61.01-.01-123.44.02c-3.7 0-6.23-3.75-4.06-6.99q1.22-1.82 2.55-1.89 2.3-.11 4.06-.11" stroke="#707071"/><path d="m176.82 266.45 11.44.01q.51 0 .67-.47l14.74-41.75a5.04 5.03-12.8 0 1 1.19-1.89l58.37-58.41q.53-.54-.23-.54l-11.21.03" stroke="#636365"/><path d="m251.79 163.43-117.5.03q-.53 0-.53.53l-.08 139.93q0 1.13-1.13 1.16-1.86.05-3.81.12c-13.31.51-24.14 10.01-25.69 23.18-1.3 10.99 6.04 21.33 16.35 25.02q3.93 1.41 10.14 1.4 75.01-.14 142.4.05a3.84 3.83 22.6 0 0 2.7-1.11l84.27-84.25" stroke="#707071"/><path d="M251.79 163.43q.46-.03.55.31.05.21-.11.49-.49.84-1.17 1.52-29.95 29.93-59.4 59.4a2.96 2.89-13.4 0 0-.69 1.09l-14.15 40.21m182.04-103 .05 106.04" stroke="#d3d3d6"/><path d="M213.67 255.05a.35.35 0 0 0 .37.09l12.08-4.28a.35.35 0 0 0 .13-.57l-16.07-16.09a.35.35 0 0 0-.57.13l-4.28 12.11a.35.35 0 0 0 .09.37z" stroke="#806450"/><path d="M379.71 261.73 253.99 387.48q-.58.58.24.58l125.7.01" stroke="#806508"/><path d="m379.93 388.07 9.91.1q.61.01.61-.59v-20.3a.48.47-89.4 0 0-.46-.48l-9.94-.24" stroke="#805202"/><path d="M380.05 366.56q-4.86-4.23.04-8.36" stroke="#806508"/><path d="m380.09 358.2 9.86-.45q.5-.02.5-.52v-12.21q0-.59-.59-.6l-9.68-.31" stroke="#805202"/><path d="M380.18 344.11c-3.3-2.36-3.43-6.39.2-8.51" stroke="#806508"/><path d="m380.38 335.6 9.48-.22q.59-.01.59-.6v-12.51a.51.51 0 0 0-.5-.51l-9.78-.16" stroke="#805202"/><path d="M380.17 321.6q-5.1-4.12-.01-8.46" stroke="#806508"/><path d="m380.16 313.14 9.69-.22q.6-.01.6-.61v-12.29q0-.59-.59-.61l-9.71-.3" stroke="#805202"/><path d="M380.15 299.11q-1.98-1.42-2.37-3.11-.7-3.1 2.27-5.28" stroke="#806508"/><path d="m380.05 290.72 9.83-.36q.57-.02.57-.59v-38.04q0-.68-.49-.2l-10.25 10.2" stroke="#805202"/><path d="m380.05 290.72-.34-28.99m.44 37.38.01 14.03m.01 8.46.21 14m-.2 8.51-.09 14.09m-.04 8.36-.12 21.51" stroke="#ffb70a"/><path d="M366.98 302.14a.53.53 0 0 0-.9-.37l-62.97 62.97a.53.53 0 0 0 .37.9l63.03.06a.53.53 0 0 0 .53-.53z" stroke="#806508"/><path d="M358 323.82a.34.34 0 0 0-.58-.24l-32.08 32.08a.34.34 0 0 0 .24.58h32.08a.34.34 0 0 0 .34-.34z" stroke="#652403"/></g><path d="M238.89 0h15.34Q306.8 1.9 353 23.93q54.89 26.17 91.96 75.56 8.54 11.39 19.1 28.3.09 2.26 1.35 4.39 1.42 2.4 1.46 2.5 25.28 50.25 26.28 106.5.01.56-.38.16L367.99 116.66q-2.71-4.77-3.79-5.86-6.94-6.97-14.12-14.14-5.46-5.46-13.64-3.5c-3.14.75-5.48 3.08-7.69 5.28q-27.83 27.71-55.46 55.48a1.58 1.53 21.9 0 1-1.1.45h-94.72l-43.6-43.64-.45-4.59q-.04-.5-.54-.54c-17.42-1.47-31.68 8.05-37.67 24.3q-1.62 4.42-1.63 10.35-.01 14.11-.21 28.2l-.24 97.06q0 .25-.12.47-.08.17-.08.37-.12 28.65-.01 65.17.03 9.61 5.61 17.79.28.42.42.9.15.57.55 1.02 4.59 5.25 8.74 9.41 64.71 64.94 128.02 128.1.49.48 1.19.62.61.12 0 .24-.22.04-.44.03c-68.27-2.7-131.21-32.9-176.63-84.17q-1.04-1.17-1.88-2.43-.38-.57-1.06-.75-.5-.14-.67-.62-.52-1.48-2.07-1.65Q39.36 379.15 29.44 361 2.14 311.02 0 252.36v-15.12Q3.55 153 56.36 89.1q29.99-36.28 72.7-59.51Q179.4 2.22 238.89 0" fill="#fa5c0c"/><path d="M367.99 116.66q.35 6.32-2.14 10.66-1.21 2.11-6.95 7.7-9.5 9.23-19.04 18.96-.44.44.19.44h33.68a4.56 4.55-90 0 1 4.55 4.56v90.3q0 .72.51.22l20.12-19.82q.52-.52.5.22c-.14 5.04.25 10.28.26 15.44q.14 69.78-.18 146.06-.01 2.5-.11 5.24-.02.5-.52.51-2.1.04-4.05.05-60.74.45-148.31.18-7.16-.02-14.41-.35-.58-.02-.17-.44l32.17-32.33q.55-.55-.23-.55-68.85.02-134.18.06-5.87 0-9.71-.9c-11.74-2.75-21.5-11.92-24.85-23.24q-1.53-5.19-1.53-17.91.01-76.63-.22-153.27.2-14.09.21-28.2.01-5.93 1.63-10.35c5.99-16.25 20.25-25.77 37.67-24.3q.5.04.54.54l.45 4.59v43.14q0 .51.5.51l43.1-.01h94.72a1.58 1.53 21.9 0 0 1.1-.45q27.63-27.77 55.46-55.48c2.21-2.2 4.55-4.53 7.69-5.28q8.18-1.96 13.64 3.5 7.18 7.17 14.12 14.14 1.08 1.09 3.79 5.86m-39.65-4.64 20.12 20.12a.35.35 0 0 0 .5 0l8.36-8.36a5.11 5.1 45 0 0 0-7.22l-13.4-13.4a5.11 5.1 45 0 0-7.22 0l-8.36 8.36a.35.35 0 0 0 0 .5m-223.57 19.23c-.97 2.43-1.85 5.34-1.85 8.03q.02 83.29 0 167.38 0 .79.55.22 8.3-8.59 20.17-10.53.69-.12.69-.82l-.08-179.98q0-.49-.47-.37-13.94 3.47-19.01 16.07m237.312 7.763a.4.4 0 0 0 0-.566l-20.04-20.04a.4.4 0 0 0-.565 0l-7.68 7.68a.4.4 0 0 0 0 .566l20.04 20.04a.4.4 0 0 0 .566 0zM229.13 240.43l5.49 5.48a.41.41 0 0 0 .58 0l92.12-92.12q.38-.38.01-.76l-5.37-5.44-14.5-14.41q-.38-.38-.75 0l-92.02 92.02q-.37.37 0 .74zm129.78 29.06q5-4.57 9.04-8.54 1.37-1.35 1.37-3.32-.02-47.33-.01-93.61 0-.52-.52-.52l-9.93-.05-27.76.01a1.85 1.8-67 0 0-1.29.54l-91.57 91.55a5.63 5.62-77.3 0 1-2.13 1.35l-26.05 9.17q-1.17.41.06.41 43.87 0 87.98.01 4.06 0 4.33 4.39v.18q-.1 4.36-4.72 4.36-61.01-.01-123.44.02c-3.7 0-6.23-3.75-4.06-6.99q1.22-1.82 2.55-1.89 2.3-.11 4.06-.11l11.44.01q.51 0 .67-.47l14.74-41.75a5.04 5.03-12.8 0 1 1.19-1.89l58.37-58.41q.53-.54-.23-.54l-11.21.03-117.5.03q-.53 0-.53.53l-.08 139.93q0 1.13-1.13 1.16-1.86.05-3.81.12c-13.31.51-24.14 10.01-25.69 23.18-1.3 10.99 6.04 21.33 16.35 25.02q3.93 1.41 10.14 1.4 75.01-.14 142.4.05a3.84 3.83 22.6 0 0 2.7-1.11zm-145.24-14.44a.35.35 0 0 0 .37.09l12.08-4.28a.35.35 0 0 0 .13-.57l-16.07-16.09a.35.35 0 0 0-.57.13l-4.28 12.11a.35.35 0 0 0 .09.37zm166.04 6.68L253.99 387.48q-.58.58.24.58l125.7.01 9.91.1q.61.01.61-.59v-20.3a.48.47-89.4 0 0-.46-.48l-9.94-.24q-4.86-4.23.04-8.36l9.86-.45q.5-.02.5-.52v-12.21q0-.59-.59-.6l-9.68-.31c-3.3-2.36-3.43-6.39.2-8.51l9.48-.22q.59-.01.59-.6v-12.51a.51.51 0 0 0-.5-.51l-9.78-.16q-5.1-4.12-.01-8.46l9.69-.22q.6-.01.6-.61v-12.29q0-.59-.59-.61l-9.71-.3q-1.98-1.42-2.37-3.11-.7-3.1 2.27-5.28l9.83-.36q.57-.02.57-.59v-38.04q0-.68-.49-.2z"/><path d="M328.34 112.02a.35.35 0 0 1 0-.5l8.36-8.36a5.11 5.1 45 0 1 7.22 0l13.4 13.4a5.11 5.1 45 0 1 0 7.22l-8.36 8.36a.35.35 0 0 1-.5 0z" fill="#546f7a"/><path d="m133.87 110.73 43.6 43.64-43.1.01q-.5 0-.5-.51z" fill="#ca4806"/><path d="M104.77 131.25q5.07-12.6 19.01-16.07.47-.12.47.37l.08 179.98q0 .7-.69.82-11.87 1.94-20.17 10.53-.55.57-.55-.22.02-84.09 0-167.38c0-2.69.88-5.6 1.85-8.03" fill="#919191"/><path d="m367.99 116.66 124.78 124.68q.39.4.38-.16-1-56.25-26.28-106.5-.04-.1-1.46-2.5-1.26-2.13-1.35-4.39 33.52 55.14 35.94 120.1v14.59q-1.93 53.06-24.33 98.73-21.59 44.05-56.65 75.33Q352.2 496.19 260.88 500h-15.11q-52.71-1.95-98.99-24.07-55.01-26.29-92.08-75.92 1.55.17 2.07 1.65.17.48.67.62.68.18 1.06.75.84 1.26 1.88 2.43c45.42 51.27 108.36 81.47 176.63 84.17q.22.01.44-.03.61-.12 0-.24-.7-.14-1.19-.62-63.31-63.16-128.02-128.1-4.15-4.16-8.74-9.41-.4-.45-.55-1.02-.14-.48-.42-.9-5.58-8.18-5.61-17.79-.11-36.52.01-65.17 0-.2.08-.37.12-.22.12-.47l.24-97.06q.23 76.64.22 153.27 0 12.72 1.53 17.91c3.35 11.32 13.11 20.49 24.85 23.24q3.84.9 9.71.9 65.33-.04 134.18-.06.78 0 .23.55l-32.17 32.33q-.41.42.17.44 7.25.33 14.41.35 87.57.27 148.31-.18 1.95-.01 4.05-.05.5-.01.52-.51.1-2.74.11-5.24.32-76.28.18-146.06c-.01-5.16-.4-10.4-.26-15.44q.02-.74-.5-.22l-20.12 19.82q-.51.5-.51-.22v-90.3a4.56 4.55-90 0 0-4.55-4.56h-33.68q-.63 0-.19-.44 9.54-9.73 19.04-18.96 5.74-5.59 6.95-7.7 2.49-4.34 2.14-10.66" fill="#ca4806"/><rect fill="#fa5c0c" height="11.66" rx=".4" transform="rotate(45 3.968 462.134)" width="29.14" x="-14.57" y="-5.83"/><path d="m321.96 147.59-92.83 92.84-14.44-14.49q-.37-.37 0-.74l92.02-92.02q.37-.38.75 0z" fill="#ffca10"/><path d="m321.96 147.59 5.37 5.44q.37.38-.01.76l-92.12 92.12a.41.41 0 0 1-.58 0l-5.49-5.48z" fill="#ffa304"/><path d="M251.79 163.43q.46-.03.55.31.05.21-.11.49-.49.84-1.17 1.52-29.95 29.93-59.4 59.4a2.96 2.89-13.4 0 0-.69 1.09l-14.15 40.21q-1.76 0-4.06.11-1.33.07-2.55 1.89c-2.17 3.24.36 6.99 4.06 6.99q62.43-.03 123.44-.02 4.62 0 4.72-4.36v-.18q-.27-4.39-4.33-4.39-44.11-.01-87.98-.01-1.23 0-.06-.41l26.05-9.17a5.63 5.62-77.3 0 0 2.13-1.35L329.81 164a1.85 1.8-67 0 1 1.29-.54l27.76-.01.05 106.04-84.27 84.25a3.84 3.83 22.6 0 1-2.7 1.11q-67.39-.19-142.4-.05-6.21.01-10.14-1.4c-10.31-3.69-17.65-14.03-16.35-25.02 1.55-13.17 12.38-22.67 25.69-23.18q1.95-.07 3.81-.12 1.13-.03 1.13-1.16l.08-139.93q0-.53.53-.53z" fill="#e0e0e2"/><path d="m176.82 266.45 14.15-40.21a2.96 2.89-13.4 0 1 .69-1.09q29.45-29.47 59.4-59.4.68-.68 1.17-1.52.16-.28.11-.49-.09-.34-.55-.31l11.21-.03q.76 0 .23.54l-58.37 58.41a5.04 5.03-12.8 0 0-1.19 1.89l-14.74 41.75q-.16.47-.67.47zm182.04-103 9.93.05q.52 0 .52.52-.01 46.28.01 93.61 0 1.97-1.37 3.32-4.04 3.97-9.04 8.54z" fill="#c6c5ca"/><path d="m213.67 255.05-8.25-8.24a.35.35 0 0 1-.09-.37l4.28-12.11a.35.35 0 0 1 .57-.13l16.07 16.09a.35.35 0 0 1-.13.57l-12.08 4.28a.35.35 0 0 1-.37-.09" fill="#ffc89f"/><path d="m380.05 290.72-.34-28.99 10.25-10.2q.49-.48.49.2v38.04q0 .57-.57.59z" fill="#ffa304"/><path d="m379.71 261.73.34 28.99q-2.97 2.18-2.27 5.28.39 1.69 2.37 3.11l.01 14.03q-5.09 4.34.01 8.46l.21 14c-3.63 2.12-3.5 6.15-.2 8.51l-.09 14.09q-4.9 4.13-.04 8.36l-.12 21.51-125.7-.01q-.82 0-.24-.58zm-12.73 40.41a.53.53 0 0 0-.9-.37l-62.97 62.97a.53.53 0 0 0 .37.9l63.03.06a.53.53 0 0 0 .53-.53z" fill="#ffca10"/><path d="m380.15 299.11 9.71.3q.59.02.59.61v12.29q0 .6-.6.61l-9.69.22z" fill="#ffa304"/><path d="m366.98 302.14.06 63.03a.53.53 0 0 1-.53.53l-63.03-.06a.53.53 0 0 1-.37-.9l62.97-62.97a.53.53 0 0 1 .9.37M358 323.82a.34.34 0 0 0-.58-.24l-32.08 32.08a.34.34 0 0 0 .24.58h32.08a.34.34 0 0 0 .34-.34z"/><path d="m380.17 321.6 9.78.16a.51.51 0 0 1 .5.51v12.51q0 .59-.59.6l-9.48.22z" fill="#ffa304"/><path d="M358 323.82v32.08a.34.34 0 0 1-.34.34h-32.08a.34.34 0 0 1-.24-.58l32.08-32.08a.34.34 0 0 1 .58.24" fill="#ca4806"/><path d="m380.18 344.11 9.68.31q.59.01.59.6v12.21q0 .5-.5.52l-9.86.45zm-.13 22.45 9.94.24a.48.47-89.4 0 1 .46.48v20.3q0 .6-.61.59l-9.91-.1z" fill="#ffa304"/></svg>